<?xml version="1.0" encoding="UTF-8"?>
<!DOCTYPE svg PUBLIC "-//W3C//DTD SVG 1.1//EN" "http://www.w3.org/Graphics/SVG/1.1/DTD/svg11.dtd">
<!-- Creator: CorelDRAW -->
<svg xmlns="http://www.w3.org/2000/svg" xml:space="preserve" width="2048px" height="2048px" style="shape-rendering:geometricPrecision; text-rendering:geometricPrecision; image-rendering:optimizeQuality; fill-rule:evenodd; clip-rule:evenodd"
viewBox="0 0 2048 2048"
 xmlns:xlink="http://www.w3.org/1999/xlink">
 <defs>
  <style type="text/css">
   <![CDATA[
    .fil0 {fill:#795548}
    .fil1 {fill:white;fill-rule:nonzero}
   ]]>
  </style>
 </defs>
 <g id="Layer_x0020_1">
  <metadata id="CorelCorpID_0Corel-Layer"/>
  <rect class="fil0" width="2048" height="2048" rx="256.001" ry="256.001"/>
  <path class="fil1" d="M1024 255.998c212.075,0 404.076,85.9619 543.057,224.945 138.983,138.982 224.945,330.982 224.945,543.057 0,212.075 -85.9619,404.076 -224.945,543.057 -138.982,138.983 -330.982,224.945 -543.057,224.945 -212.075,0 -404.076,-85.9619 -543.057,-224.945 -138.983,-138.982 -224.945,-330.982 -224.945,-543.057 0,-212.075 85.9619,-404.076 224.945,-543.057 138.982,-138.983 330.982,-224.945 543.057,-224.945zm497.807 270.195c-127.396,-127.397 -303.397,-206.193 -497.807,-206.193 -194.41,0 -370.411,78.7961 -497.807,206.193 -127.397,127.396 -206.193,303.397 -206.193,497.807 0,194.41 78.7961,370.411 206.193,497.807 127.396,127.397 303.397,206.193 497.807,206.193 194.41,0 370.411,-78.7961 497.807,-206.193 127.397,-127.396 206.193,-303.397 206.193,-497.807 0,-194.41 -78.7961,-370.411 -206.193,-497.807z"/>
 </g>
 <g id="Layer_x0020_1_0">
  <metadata id="CorelCorpID_1Corel-Layer"/>
  <path class="fil1" d="M1233.5 1391.31c-38.8441,19.1917 -79.0312,31.4811 -118.988,34.2177 31.9453,-142.876 71.1095,-303.507 185.025,-423.576 -120.972,89.0812 -202.947,211.771 -247.523,411.251 -0.612993,2.75906 -0.842127,5.51103 -0.722835,8.20276 -10.624,-2.20748 -21.1689,-5.21221 -31.6051,-9.07796l-13.7433 -5.09174 -5.0752 -14.041c-45.0591,-124.674 -13.7445,-272.734 60.3284,-392.358 29.1236,-47.0339 64.9796,-89.8902 105.484,-125.359 41.0008,-35.9008 86.7119,-64.2142 135.02,-81.6733 87.3402,-31.565 182.733,-28.2425 274.234,28.4173l20.7331 12.8398 -6.86693 23.426c-1.36654,4.66418 -2.77205,9.47835 -4.213,14.4225 -27.1736,93.1985 -67.8627,232.729 -146.198,338.973 -53.6363,72.7418 -127.18,140.539 -205.89,179.426z"/>
  <path class="fil1" d="M683.321 835.263c101.388,39.2504 189.887,73.5107 294.526,210.194l10.2532 13.3925 -5.17678 15.9957c-4.99843,15.4453 -2.56418,8.01497 -3.72166,11.5595 -9.88229,30.2788 -20.7213,63.4973 -27.6095,102.347 -132.425,-61.3524 -280.24,-133.66 -373.028,-269.875 61.3985,137.113 163.911,243.243 349.399,329.113 5.49213,2.53465 11.3268,3.34488 16.911,2.65748 -1.24488,31.2107 0.563386,65.7556 7.06654,104.539l5.80394 34.6028 -34.774 2.53937c-63.1158,4.60748 -123.947,-5.89961 -179.659,-28.1445 -78.1867,-31.2189 -146.36,-85.6949 -196.556,-153.975 -50.1839,-68.2619 -82.4174,-150.434 -88.741,-237.065 -4.55552,-62.4225 4.35709,-127.15 29.7166,-190.66l13.5957 -34.0465 31.4693 18.1642c54.6414,31.5402 104.035,50.6634 150.525,68.6599z"/>
 </g>
</svg>
