<?xml version="1.0" encoding="utf-8"?>
<!-- Generator: Adobe Illustrator 24.0.0, SVG Export Plug-In . SVG Version: 6.00 Build 0)  -->
<svg version="1.1" xmlns="http://www.w3.org/2000/svg" xmlns:xlink="http://www.w3.org/1999/xlink" x="0px" y="0px"
	 viewBox="0 0 64 64" enable-background="new 0 0 64 64" xml:space="preserve">
<g id="Captions">
</g>
<g id="Icons">
	<g>
		<g>
			<path fill="#FAB400" d="M32,13c0,2.21-1.79,4-4,4v5h-5c0-2.21-1.79-4-4-4s-4,1.79-4,4h-4.99c0-0.68,0.03-1.37,0.11-2.07
				c0.85-7.66,8.17-14.97,15.82-15.82C26.64,4.04,27.32,4,28,4v5C30.21,9,32,10.79,32,13z"/>
		</g>
		<g>
			<path fill="#0A5078" d="M46,22c0,5.73-2.68,10.82-6.86,14.11C37.19,37.66,36,39.97,36,42.47V44h-8V34c-2.21,0-4-1.79-4-4
				c0-2.21,1.79-4,4-4v-4h5c0,2.21,1.79,4,4,4s4-1.79,4-4H46z"/>
		</g>
		<g>
			<path fill="#00325A" d="M41,22c0,2.21-1.79,4-4,4c-0.345,0-0.68-0.044-1-0.126V29c0,1.105,0.895,2,2,2h3
				c0,0.93,0.33,1.775,0.862,2.454c0.001,0,0.003,0,0.004,0C44.449,30.347,46,26.359,46,22H41z"/>
		</g>
		<g>
			<path fill="#C80A50" d="M24,30c0,2.21,1.79,4,4,4v10h-8v-1.53c0-2.5-1.19-4.81-3.15-6.36c-4.17-3.29-6.84-8.38-6.84-14.11H15
				c0-2.21,1.79-4,4-4s4,1.79,4,4h5v4C25.79,26,24,27.79,24,30z"/>
		</g>
		<g>
			<path fill="#DC9600" d="M19,17c-2.21,0-4,1.79-4,4h-4.966c-0.017,0.336-0.024,0.669-0.024,1H15c0-2.21,1.79-4,4-4s4,1.79,4,4h5
				v-1h-5C23,18.79,21.21,17,19,17z"/>
		</g>
		<g>
			<path fill="#A00028" d="M24,30c0-2.21,1.79-4,4-4v-4h-1v4c-2.21,0-4,1.79-4,4c0,2.21,1.79,4,4,4v10h1V34C25.79,34,24,32.21,24,30
				z"/>
		</g>
		<g>
			<path fill="#00A0C8" d="M55,31h-5c0,2.21-1.79,4-4,4s-4-1.79-4-4h-3c-1.105,0-2-0.895-2-2v-3c2.21,0,4-1.79,4-4
				c0-2.21-1.79-4-4-4v-5C46.94,13,55,21.06,55,31z"/>
		</g>
		<g>
			<path fill="#0082AA" d="M45,28c-1.105,0-2,0.895-2,2v3.646C43.733,34.476,44.805,35,46,35c0.345,0,0.68-0.044,1-0.126V30
				C47,28.895,46.105,28,45,28z"/>
		</g>
		<g>
			<rect x="20" y="43" fill="#A00028" width="8" height="1"/>
		</g>
		<g>
			<rect x="28" y="43" fill="#00325A" width="8" height="1"/>
		</g>
		<g>
			<path fill="#00A0C8" d="M36,48H20c-1.105,0-2-0.895-2-2v0c0-1.105,0.895-2,2-2h16c1.105,0,2,0.895,2,2v0
				C38,47.105,37.105,48,36,48z"/>
		</g>
		<g>
			<path fill="#0A5078" d="M32,56h-8c-2.209,0-4-1.791-4-4v-4h16v4C36,54.209,34.209,56,32,56z"/>
		</g>
		<g>
			<path fill="#C80A50" d="M28,60L28,60c-2.209,0-4-1.791-4-4v0h8v0C32,58.209,30.209,60,28,60z"/>
		</g>
		<g>
			<rect x="20" y="48" fill="#00325A" width="16" height="1"/>
		</g>
		<g>
			<path fill="#A00028" d="M31.874,57C31.956,56.68,32,56.345,32,56h-8c0,0.345,0.044,0.68,0.126,1H31.874z"/>
		</g>
		<g>
			<g>
				<path fill="#F0C8A0" d="M58,42c-1.105,0-2,0.895-2,2v-1c0-1.105-0.895-2-2-2s-2,0.895-2,2v-1c0-1.105-0.895-2-2-2s-2,0.895-2,2
					V30c0-1.105-0.895-2-2-2s-2,0.895-2,2v14h-2c-1.105,0-2,0.895-2,2v6c0,2.209,1.791,4,4,4v4h14v-4c1.105,0,2-0.895,2-2V44
					C60,42.895,59.105,42,58,42z"/>
			</g>
			<g>
				<path fill="#D2AA82" d="M49,42v2h-1v-2c0-1.105,0.895-2,2-2c0.173,0,0.34,0.022,0.5,0.063C49.637,40.285,49,41.068,49,42z"/>
			</g>
			<g>
				<path fill="#D2AA82" d="M53,43v1h-1v-1c0-1.105,0.895-2,2-2c0.173,0,0.34,0.022,0.5,0.063C53.637,41.285,53,42.068,53,43z"/>
			</g>
			<g>
				<path fill="#D2AA82" d="M57,44L57,44h-1l0,0c0-1.105,0.895-2,2-2c0.173,0,0.34,0.022,0.5,0.063C57.637,42.285,57,43.068,57,44z"
					/>
			</g>
			<g>
				<path fill="#D2AA82" d="M41,46v6c0,1.864,1.275,3.43,3,3.874V56c-2.209,0-4-1.791-4-4v-6c0-1.105,0.895-2,2-2h1
					C41.895,44,41,44.895,41,46z"/>
			</g>
			<g>
				<path fill="#D2AA82" d="M45,30v22h-1V30c0-1.105,0.895-2,2-2c0.173,0,0.34,0.022,0.5,0.063C45.637,28.285,45,29.068,45,30z"/>
			</g>
		</g>
	</g>
</g>
</svg>
