<svg id="Line" xmlns="http://www.w3.org/2000/svg" width="64" height="64" viewBox="0 0 64 64"><title>customer service</title><path d="M35.717,39.868h4.457c.021-3.342.032-6.589.011-7.557C39.514,33.277,37.389,36.936,35.717,39.868Z" style="fill:#c4a2fc"/><path d="M39.5,16H15a1,1,0,0,0-1,1V39.5A23.527,23.527,0,0,0,37.5,63h2a23.5,23.5,0,0,0,0-47ZM32.012,45.969c-2.069.024-3.572.034-4.668.034-2.479,0-3.493.148-3.784-.816-.182-.6.06-.905.963-2.019.742-.916,2.123-2.622,4.436-5.738,1.47-1.98,1.388-2.878,1.423-2.978A2.637,2.637,0,0,0,27.656,32a2.681,2.681,0,0,0-2.677,2.037,1,1,0,1,1-1.958-.408A4.686,4.686,0,0,1,27.656,30a4.628,4.628,0,0,1,4.727,4.514,8.08,8.08,0,0,1-1.817,4.107C28.548,41.34,27.229,43,26.423,44c1.538,0,3.825-.01,5.565-.03A1.025,1.025,0,0,1,33,44.957,1,1,0,0,1,32.012,45.969ZM43,41.868h-.839c-.012,1.555-.022,2.772-.026,3.141a1,1,0,0,1-1,.991h-.009a1,1,0,0,1-.991-1.009c.009-.947.017-2.015.025-3.123H34a1,1,0,0,1-.871-1.492c.8-1.422,4.851-8.564,5.654-9.528a1.837,1.837,0,0,1,3.385,1.038c.043.506.028,4.509.006,7.982H43a1,1,0,0,1,0,2ZM55,46h0a1,1,0,0,1-1-1l-.021-5.15c.018-3.268-1.026-3.845-2.712-3.845-1.924,0-3.267,1.58-3.267,3.842V45a1,1,0,0,1-2,0V30a1,1,0,0,1,2,0v5.175a5.011,5.011,0,0,1,3.267-1.166c3.521,0,4.732,2.34,4.712,5.847L56,45A1,1,0,0,1,55,46Z" style="fill:#c4a2fc"/><path d="M48,22H46V21A20,20,0,0,0,6,21v1H4a3,3,0,0,0-3,3v8a3,3,0,0,0,3,3H7a1,1,0,0,0,1-1V21a18,18,0,0,1,36,0V35a1,1,0,0,0,1,1h3a3,3,0,0,0,3-3V25A3,3,0,0,0,48,22ZM3,33V25a1,1,0,0,1,1-1H6V34H4A1,1,0,0,1,3,33Zm46,0a1,1,0,0,1-1,1H46V24h2a1,1,0,0,1,1,1Z" style="fill:#151a6a"/><path d="M37,14H15a5.006,5.006,0,0,0-5,5V31a5.006,5.006,0,0,0,5,5H25.586l9.707,9.707A1,1,0,0,0,37,45V36a5.006,5.006,0,0,0,5-5V19A5.006,5.006,0,0,0,37,14Zm3,17a3,3,0,0,1-3,3H36a1,1,0,0,0-1,1v7.586l-8.293-8.293A1,1,0,0,0,26,34H15a3,3,0,0,1-3-3V19a3,3,0,0,1,3-3H37a3,3,0,0,1,3,3Z" style="fill:#151a6a"/><path d="M35,21H17a1,1,0,0,1,0-2H35a1,1,0,0,1,0,2Z" style="fill:#151a6a"/><path d="M35,26H17a1,1,0,0,1,0-2H35a1,1,0,0,1,0,2Z" style="fill:#151a6a"/><path d="M35,31H17a1,1,0,0,1,0-2H35a1,1,0,0,1,0,2Z" style="fill:#151a6a"/></svg>