<?xml version="1.0" encoding="utf-8"?>
<!-- Generator: Adobe Illustrator 24.0.0, SVG Export Plug-In . SVG Version: 6.00 Build 0)  -->
<svg version="1.1" xmlns="http://www.w3.org/2000/svg" xmlns:xlink="http://www.w3.org/1999/xlink" x="0px" y="0px"
	 viewBox="0 0 64 64" enable-background="new 0 0 64 64" xml:space="preserve">
<g id="Captions">
</g>
<g id="Icons">
	<g>
		<g>
			<path fill="#DC9600" d="M32,59C19.318,59,9,48.683,9,36s10.318-23,23-23c12.683,0,23,10.317,23,23S44.683,59,32,59z M32,15
				c-11.58,0-21,9.421-21,21s9.42,21,21,21c11.579,0,21-9.421,21-21S43.579,15,32,15z"/>
		</g>
		<g>
			<g>
				<circle fill="#C80A50" cx="16" cy="48" r="12"/>
			</g>
			<g>
				<g>
					<path fill="#FAB400" d="M24,55c0-1.657-1.343-3-3-3H11c-1.657,0-3,1.343-3,3v1.943c2.123,1.9,4.926,3.057,8,3.057
						s5.877-1.156,8-3.057V55z"/>
				</g>
				<g>
					<path fill="#00A0C8" d="M12,52c0,2.209,1.791,4,4,4s4-1.791,4-4H12z"/>
				</g>
				<g>
					<path fill="#D2AA82" d="M16,54L16,54c-1.105,0-2-0.895-2-2v-3h4v3C18,53.105,17.105,54,16,54z"/>
				</g>
				<g>
					<path fill="#F0C8A0" d="M17,50h-2c-1.657,0-3-1.343-3-3v-3c0-1.105,0.895-2,2-2h4c1.105,0,2,0.895,2,2v3
						C20,48.657,18.657,50,17,50z"/>
				</g>
				<g>
					<path fill="#0A5078" d="M18,42h-4c-1.105,0-2,0.895-2,2v0v-2c0-1.105,0.895-2,2-2h4c1.105,0,2,0.895,2,2v2v0
						C20,42.895,19.105,42,18,42z"/>
				</g>
			</g>
		</g>
		<g>
			<g>
				<circle fill="#0A5078" cx="48" cy="48" r="12"/>
			</g>
			<g>
				<g>
					<path fill="#00A0C8" d="M56,55c0-1.657-1.343-3-3-3H43c-1.657,0-3,1.343-3,3v1.943c2.123,1.9,4.926,3.057,8,3.057
						s5.877-1.156,8-3.057V55z"/>
				</g>
				<g>
					<path fill="#0A5078" d="M44,52c0,2.209,1.791,4,4,4s4-1.791,4-4H44z"/>
				</g>
				<g>
					<path fill="#D2AA82" d="M48,54L48,54c-1.105,0-2-0.895-2-2v-3h4v3C50,53.105,49.105,54,48,54z"/>
				</g>
				<g>
					<path fill="#F0C8A0" d="M49,50h-2c-1.657,0-3-1.343-3-3v-3c0-1.105,0.895-2,2-2h4c1.105,0,2,0.895,2,2v3
						C52,48.657,50.657,50,49,50z"/>
				</g>
				<g>
					<path fill="#DC9600" d="M50,42h-4c-1.105,0-2,0.895-2,2v0v-2c0-1.105,0.895-2,2-2h4c1.105,0,2,0.895,2,2v2v0
						C52,42.895,51.105,42,50,42z"/>
				</g>
			</g>
		</g>
		<g>
			<g>
				<circle fill="#00A0C8" cx="32" cy="16" r="12"/>
			</g>
			<g>
				<g>
					<path fill="#C80A50" d="M33,6h-2c-2.761,0-5,2.239-5,5v10c0,0.552,0.448,1,1,1h10c0.552,0,1-0.448,1-1V11
						C38,8.239,35.761,6,33,6z"/>
				</g>
				<g>
					<path fill="#C80A50" d="M36,20h-8c-2.209,0-4,1.791-4,4v0.943c2.123,1.9,4.926,3.057,8,3.057s5.877-1.156,8-3.057V24
						C40,21.791,38.209,20,36,20z"/>
				</g>
				<g>
					<path fill="#00A0C8" d="M28,20c0,2.209,1.791,4,4,4s4-1.791,4-4H28z"/>
				</g>
				<g>
					<path fill="#D2AA82" d="M32,22L32,22c-1.105,0-2-0.895-2-2v-3h4v3C34,21.105,33.105,22,32,22z"/>
				</g>
				<g>
					<path fill="#F0C8A0" d="M33,18h-2c-1.657,0-3-1.343-3-3v-3c0-1.105,0.895-2,2-2h1v0c0,1.105,0.895,2,2,2h3v3
						C36,16.657,34.657,18,33,18z"/>
				</g>
			</g>
		</g>
		<g>
			<g>
				<path fill="#00325A" d="M36,48c0,0.105,0.001,0.21,0.004,0.315C40.663,46.666,44,42.223,44,37c0-0.105-0.001-0.21-0.004-0.315
					C39.337,38.334,36,42.777,36,48z"/>
			</g>
			<g>
				<path fill="#A00028" d="M20.004,36.685C20.001,36.79,20,36.895,20,37c0,5.223,3.337,9.666,7.996,11.315
					C27.999,48.21,28,48.105,28,48C28,42.777,24.663,38.334,20.004,36.685z"/>
			</g>
		</g>
		<g>
			<g>
				<circle fill="#00A0C8" cx="32" cy="36" r="11"/>
			</g>
			<path fill="#0A5078" d="M32,24c-6.627,0-12,5.373-12,12s5.373,12,12,12c6.627,0,12-5.373,12-12S38.627,24,32,24z M41.95,35
				h-3.971c-0.136-3.308-0.943-6.235-2.149-8.237C39.155,28.147,41.579,31.276,41.95,35z M32,46c-1.54,0-3.738-3.474-3.978-9h7.956
				C35.738,42.526,33.54,46,32,46z M28.022,35c0.24-5.526,2.438-9,3.978-9s3.738,3.474,3.978,9H28.022z M28.17,26.763
				c-1.205,2.002-2.012,4.929-2.149,8.237H22.05C22.421,31.276,24.845,28.147,28.17,26.763z M22.05,37h3.971
				c0.136,3.308,0.943,6.235,2.149,8.237C24.845,43.853,22.421,40.724,22.05,37z M35.83,45.237c1.205-2.002,2.012-4.929,2.149-8.237
				h3.971C41.579,40.724,39.155,43.853,35.83,45.237z"/>
		</g>
	</g>
</g>
</svg>
